<?xml version="1.0" encoding="UTF-8" standalone="no"?>
<!-- Creator: CorelDRAW Home & Student X7 -->

<svg
   xml:space="preserve"
   width="40mm"
   height="40mm"
   version="1.0"
   style="shape-rendering:geometricPrecision; text-rendering:geometricPrecision; image-rendering:optimizeQuality; fill-rule:evenodd; clip-rule:evenodd"
   viewBox="0 0 4000 4000"
   id="svg12"
   sodipodi:docname="CHIP-100.svg"
   inkscape:version="1.1 (c68e22c387, 2021-05-23)"
   xmlns:inkscape="http://www.inkscape.org/namespaces/inkscape"
   xmlns:sodipodi="http://sodipodi.sourceforge.net/DTD/sodipodi-0.dtd"
   xmlns="http://www.w3.org/2000/svg"
   xmlns:svg="http://www.w3.org/2000/svg"><sodipodi:namedview
   id="namedview14"
   pagecolor="#ffffff"
   bordercolor="#666666"
   borderopacity="1.0"
   inkscape:pageshadow="2"
   inkscape:pageopacity="0.0"
   inkscape:pagecheckerboard="0"
   inkscape:document-units="mm"
   showgrid="false"
   inkscape:zoom="2.8839583"
   inkscape:cx="75.417179"
   inkscape:cy="72.643214"
   inkscape:window-width="1366"
   inkscape:window-height="705"
   inkscape:window-x="-8"
   inkscape:window-y="-8"
   inkscape:window-maximized="1"
   inkscape:current-layer="Ebene_x0020_1" />
 <defs
   id="defs4">
  <style
   type="text/css"
   id="style2">
   <![CDATA[
    .fil1 {fill:#FEFEFE}
    .fil0 {fill:#2B2A29}
   ]]>
  </style>
 </defs>
 <g
   id="Ebene_x0020_1"
   inkscape:label="Ebene 1">
  <metadata
   id="CorelCorpID_0Corel-Layer" />
  <circle
   class="fil0"
   transform="matrix(0.709526 0.40964 -0.409645 0.709518 2000.02 1999.95)"
   r="1831"
   id="circle7"
   style="fill:#000000" />
  <path
   class="fil1"
   d="M1729 3475c181,33 365,32 542,-1l0 -328 -542 0 0 329zm833 -751l42 72c-67,51 -140,93 -217,125l-42 -73c77,-31 150,-73 217,-124zm-437 183l0 84c-82,11 -166,11 -250,1l0 -84c84,11 168,11 250,-1zm-729 -110l42 -73c32,25 67,49 104,70 36,21 74,39 112,55l-42 73c-38,-16 -75,-35 -112,-56 -37,-21 -71,-44 -104,-69zm-808 -295l284 -164 271 469 -285 165c-119,-140 -209,-300 -270,-470zm2261 -156l73 42c-16,38 -35,75 -56,112 -21,37 -44,71 -69,104l-73 -42c25,-32 49,-67 70,-104 21,-36 39,-74 55,-112zm-1646 -950l73 42c-25,32 -49,67 -70,104 -21,36 -39,74 -55,112l-73 -42c16,-38 35,-75 56,-112 21,-37 44,-71 69,-104zm410 -317l42 73c-77,31 -150,73 -217,124l-42 -72c67,-51 140,-93 217,-125zm512 -71l0 84c-84,-11 -168,-11 -250,1l0 -84c83,-11 166,-11 250,-1zm221 143l42 -73c38,16 75,35 112,56 37,21 71,44 104,69l-42 73c-32,-25 -67,-49 -104,-70 -36,-21 -74,-39 -112,-55zm561 724l84 0c11,83 11,166 1,250l-84 0c11,-83 11,-168 -1,-250zm-1899 0l84 0c-11,84 -11,168 1,250l-84 0c-11,-82 -11,-166 -1,-250zm1716 -437l72 -42c51,67 93,140 125,217l-73 42c-31,-77 -73,-150 -124,-217zm-1645 949l73 -42c31,77 73,150 124,217l-72 42c-51,-67 -93,-140 -125,-217zm2333 -889c-61,-170 -151,-330 -270,-470l-285 165 271 469 284 -164zm-1141 -973l0 329 -542 0 0 -328c178,-33 361,-34 542,-1zm-1413 503l285 165 -271 469 -285 -165c30,-84 68,-167 114,-247 46,-80 99,-154 157,-222zm2284 1944c58,-68 111,-142 157,-222 46,-80 84,-163 114,-247l-285 -165 -271 469 285 165z"
   id="path9" />
 <text
   xml:space="preserve"
   style="font-style:normal;font-variant:normal;font-weight:normal;font-stretch:normal;font-size:1411.11px;line-height:1.25;font-family:'Agency FB';-inkscape-font-specification:'Agency FB, Normal';font-variant-ligatures:normal;font-variant-caps:normal;font-variant-numeric:normal;font-variant-east-asian:normal;fill:#ffffff;fill-opacity:1;stroke:none;stroke-width:26.4583"
   x="1275.2294"
   y="2504.5872"
   id="text562"><tspan
     sodipodi:role="line"
     id="tspan560"
     style="font-style:normal;font-variant:normal;font-weight:normal;font-stretch:normal;font-size:1411.11px;font-family:'Agency FB';-inkscape-font-specification:'Agency FB, Normal';font-variant-ligatures:normal;font-variant-caps:normal;font-variant-numeric:normal;font-variant-east-asian:normal;fill:#ffffff;stroke-width:26.4583"
     x="1275.2294"
     y="2504.5872">100</tspan></text></g>
</svg>
